# xmcd CD database file
#
# Track frame offsets:
#	150
#	9565
#	29363
#	46896
#	91491
#	102304
#	119390
#	133508
#	154085
#	183438
#	194539
#	219608
#	238128
#
# Disc length: 3568 seconds
#
# Revision: 1
# Processed by: cddbd v1.5.2PL0 Copyright (c) Steve Scherf et al.
# Submitted via: CDex 1.51
#
DISCID=b30dee0d
DTITLE=The Derek Trucks Band - Songlines
DYEAR=2006
DGENRE=Blues
TTITLE0=Volunteered Slavery
TTITLE1=I'll Find My Way
TTITLE2=Crow Jane
TTITLE3=Sahib Teri Bandi - Maki Madni
TTITLE4=Chevrolet
TTITLE5=Sailing On
TTITLE6=Revolution
TTITLE7=I'd Rather Be Blind, Crippled And Crazy
TTITLE8=All I Do
TTITLE9=Mahjoun
TTITLE10=Greensleeves
TTITLE11=I Wish I Knew (How It Would Feel To Be Free)
TTITLE12=This Sky
EXTD=YEAR: 2006
EXTT0=
EXTT1=
EXTT2=
EXTT3=
EXTT4=
EXTT5=
EXTT6=
EXTT7=
EXTT8=
EXTT9=
EXTT10=
EXTT11=
EXTT12=
PLAYORDER=
